<svg xmlns="http://www.w3.org/2000/svg" viewBox="0 0 400 300" role="img" aria-label="A clipboard checklist, for reviewing the application before submitting">
  <circle cx="200" cy="150" r="130" fill="#eaf5e2"/>
  <circle cx="200" cy="150" r="96" fill="#dcedd2"/>
  <!-- clipboard -->
  <rect x="130" y="88" width="140" height="176" rx="14" fill="#ffffff" stroke="#2b3a33" stroke-width="4"/>
  <rect x="172" y="78" width="56" height="22" rx="8" fill="#2b3a33"/>
  <g fill="none" stroke="#77b15d" stroke-width="5" stroke-linecap="round" stroke-linejoin="round">
    <rect x="150" y="122" width="18" height="18" rx="4" fill="#eaf5e2" stroke="#77b15d"/>
    <path d="M154 131l3 3 7-7"/>
  </g>
  <rect x="178" y="126" width="72" height="8" rx="4" fill="#2b3a33"/>
  <g fill="none" stroke="#77b15d" stroke-width="5" stroke-linecap="round" stroke-linejoin="round">
    <rect x="150" y="160" width="18" height="18" rx="4" fill="#eaf5e2" stroke="#77b15d"/>
    <path d="M154 169l3 3 7-7"/>
  </g>
  <rect x="178" y="164" width="72" height="8" rx="4" fill="#2b3a33"/>
  <g fill="none" stroke="#77b15d" stroke-width="5" stroke-linecap="round" stroke-linejoin="round">
    <rect x="150" y="198" width="18" height="18" rx="4" fill="#eaf5e2" stroke="#77b15d"/>
    <path d="M154 207l3 3 7-7"/>
  </g>
  <rect x="178" y="202" width="52" height="8" rx="4" fill="#dcedd2"/>
</svg>
