<svg xmlns="http://www.w3.org/2000/svg" viewBox="0 0 400 300" role="img" aria-label="A bank statement document being uploaded">
  <circle cx="200" cy="150" r="130" fill="#eaf5e2"/>
  <circle cx="200" cy="150" r="96" fill="#dcedd2"/>
  <!-- document -->
  <path d="M140 82h84l36 36v100a10 10 0 0 1-10 10h-110a10 10 0 0 1-10-10V92a10 10 0 0 1 10-10z" fill="#ffffff" stroke="#2b3a33" stroke-width="4"/>
  <path d="M224 82v30a6 6 0 0 0 6 6h30z" fill="#dcedd2" stroke="#2b3a33" stroke-width="4" stroke-linejoin="round"/>
  <rect x="156" y="140" width="88" height="8" rx="4" fill="#77b15d"/>
  <rect x="156" y="160" width="88" height="8" rx="4" fill="#dcedd2"/>
  <rect x="156" y="180" width="60" height="8" rx="4" fill="#dcedd2"/>
  <rect x="156" y="200" width="72" height="8" rx="4" fill="#dcedd2"/>
  <!-- upload arrow badge -->
  <circle cx="278" cy="204" r="24" fill="#77b15d"/>
  <path d="M278 214v-20m0 0-9 9m9-9 9 9" fill="none" stroke="#ffffff" stroke-width="4.5" stroke-linecap="round" stroke-linejoin="round"/>
</svg>
