<svg xmlns="http://www.w3.org/2000/svg" viewBox="0 0 400 300" role="img" aria-label="Two people joining hands to welcome a new joint account holder">
  <circle cx="200" cy="150" r="130" fill="#eaf5e2"/>
  <circle cx="200" cy="150" r="96" fill="#dcedd2"/>
  <!-- left person -->
  <circle cx="140" cy="118" r="26" fill="#2b3a33"/>
  <path d="M92 210c4-34 24-52 48-52s44 18 48 52z" fill="#77b15d"/>
  <!-- right person -->
  <circle cx="260" cy="118" r="26" fill="#77b15d"/>
  <path d="M212 210c4-34 24-52 48-52s44 18 48 52z" fill="#2b3a33"/>
  <!-- joined hands / heart badge -->
  <circle cx="200" cy="196" r="26" fill="#ffffff"/>
  <path d="M200 210c-10-8-18-14-18-22 0-6 5-10 10-10 4 0 7 2 8 5 1-3 4-5 8-5 5 0 10 4 10 10 0 8-8 14-18 22z" fill="#77b15d"/>
  <!-- sparkles -->
  <g fill="#77b15d">
    <circle cx="88" cy="90" r="4"/>
    <circle cx="316" cy="96" r="5"/>
    <circle cx="300" cy="200" r="3.5"/>
  </g>
</svg>
