<?xml version="1.0" encoding="UTF-8"?>
<svg width="56px" height="56px" viewBox="0 0 56 56" version="1.1" xmlns="http://www.w3.org/2000/svg" xmlns:xlink="http://www.w3.org/1999/xlink">
    <title>receive_btn</title>
    <g id="Page-1" stroke="none" stroke-width="1" fill="none" fill-rule="evenodd">
        <g id="Group">
            <circle id="Oval" fill="#012169" cx="28" cy="28" r="28"></circle>
            <g transform="translate(16.000000, 16.000000)" fill="#FFFFFF" id="Icon-Color">
                <path d="M12,15.724 L16.402125,20.1946667 L15.4741875,21.1386667 L12.656,18.275 L12.65625,24 L11.34375,24 L11.343,18.277 L8.527125,21.1386667 L7.597875,20.1946667 L12,15.724 Z M22.5,-4.26325641e-14 L22.5,17.3333333 L17.25,17.3333333 L17.25,16 L21.1875,16 L21.1875,1.33333333 L2.8125,1.33333333 L2.8125,16 L6.75,16 L6.75,17.3333333 L1.5,17.3333333 L1.5,-4.26325641e-14 L22.5,-4.26325641e-14 Z M12.65625,2.66666667 L12.65625,4.46266667 C14.0055,4.708 15.01875,5.692 15.01875,6.86666667 L15.01875,6.86666667 L15.01875,7.16666667 L13.70625,7.16666667 L13.70625,6.86666667 C13.70625,6.252 12.9253125,5.73333333 12,5.73333333 C11.0746875,5.73333333 10.29375,6.252 10.29375,6.86666667 C10.29375,7.116 10.29375,7.77733333 12.07875,8.00266667 C14.0304375,8.252 15.01875,9.08133333 15.01875,10.4666667 C15.01875,11.6413333 14.0055,12.6253333 12.65625,12.8706667 L12.65625,12.8706667 L12.65625,14.6666667 L11.34375,14.6666667 L11.34375,12.8706667 C9.9945,12.6253333 8.98125,11.6413333 8.98125,10.4666667 L8.98125,10.4666667 L8.98125,10.1666667 L10.29375,10.1666667 L10.29375,10.4666667 C10.29375,11.0813333 11.0746875,11.6 12,11.6 C12.9253125,11.6 13.70625,11.0813333 13.70625,10.4666667 C13.70625,10.2173333 13.70625,9.55466667 11.916,9.32666667 C9.997125,9.084 8.98125,8.23333333 8.98125,6.86666667 C8.98125,5.692 9.9945,4.708 11.34375,4.46266667 L11.34375,4.46266667 L11.34375,2.66666667 L12.65625,2.66666667 Z"></path>
            </g>
        </g>
    </g>
</svg>