<?xml version="1.0" encoding="UTF-8"?>
<svg width="56px" height="56px" viewBox="0 0 56 56" version="1.1" xmlns="http://www.w3.org/2000/svg" xmlns:xlink="http://www.w3.org/1999/xlink">
    <!-- Generator: Sketch 57.1 (83088) - https://sketch.com -->
    <title>button-circle</title>
    <desc>Created with Sketch.</desc>
    <g id="8.3" stroke="none" stroke-width="1" fill="none" fill-rule="evenodd">
        <g id="transfer" transform="translate(-45.000000, -486.000000)">
            <g id="card-p2p" transform="translate(16.000000, 422.000000)">
                <g id="button-circle" transform="translate(29.000000, 64.000000)">
                    <circle id="background" fill="#012169" cx="28" cy="28" r="28"></circle>
                    <g id="icon-transfer-send" transform="translate(18.000000, 13.000000)" fill="#FFFFFF">
                        <path d="M13.51875,13.8333333 L13.51875,13.5333333 C13.51875,12.3586667 12.5055,11.3746667 11.15625,11.1293333 L11.15625,9.33333333 L9.84375,9.33333333 L9.84375,11.1293333 C8.4945,11.3746667 7.48125,12.3586667 7.48125,13.5333333 C7.48125,14.9013333 8.497125,15.7506667 10.416,15.992 C12.20625,16.2213333 12.20625,16.8826667 12.20625,17.1333333 C12.20625,17.7466667 11.4253125,18.2666667 10.5,18.2666667 C9.5746875,18.2666667 8.79375,17.7466667 8.79375,17.1333333 L8.79375,16.8333333 L7.48125,16.8333333 L7.48125,17.1333333 C7.48125,18.308 8.4945,19.292 9.84375,19.5373333 L9.84375,21.3333333 L11.15625,21.3333333 L11.15625,19.5373333 C12.5055,19.292 13.51875,18.308 13.51875,17.1333333 C13.51875,15.748 12.529125,14.9173333 10.57875,14.6693333 C8.79375,14.444 8.79375,13.7826667 8.79375,13.5333333 C8.79375,12.9186667 9.5746875,12.4 10.5,12.4 C11.4253125,12.4 12.20625,12.9186667 12.20625,13.5333333 L12.20625,13.8333333 L13.51875,13.8333333" id="Fill-1"></path>
                        <polyline id="Fill-2" points="14.902125 4.472 10.5 0 6.097875 4.472 7.027125 5.41466667 9.84375 2.552 9.84375 8 11.15625 8 11.15625 2.552 13.9741875 5.41466667 14.902125 4.472"></polyline>
                        <polyline id="Fill-3" points="21 24 0 24 0 6.66666667 5.25 6.66666667 5.25 8 1.3125 8 1.3125 22.6666667 19.6875 22.6666667 19.6875 8 15.75 8 15.75 6.66666667 21 6.66666667 21 24"></polyline>
                    </g>
                </g>
            </g>
        </g>
    </g>
</svg>